<svg id="Camada_1" data-name="Camada 1" xmlns="http://www.w3.org/2000/svg" viewBox="0 0 427 342"><defs><style>.cls-1{fill:#07aed2;}</style></defs><path class="cls-1" d="M53.06,145.63a33.54,33.54,0,0,1,3-14c7.55-16.37,19.49-23,40.13-23.06q11.14,0,22.29,0c10.45,0,10.39,0,10.47-10.85.08-11.14-.27-22.33.59-33.42C131.77,36,155,12.62,187.21,13.07a56.05,56.05,0,0,1,55.5,55.3c.15,11.15.26,22.3-.07,33.44-.15,5.18,1.49,7,6.76,6.87,10.88-.31,21.77-.29,32.64,0A38.5,38.5,0,0,1,318.28,138c1.59,6.39.71,8.71-6.68,8.64-37.94-.36-75.9-.18-113.85-.16-30.3,0-50,19.48-50,49.58,0,32.91-.07,65.82.28,98.73,0,4.39-1.4,4.69-4.85,4.67-17.78-.13-35.56.17-53.34-.17-15.19-.3-26.52-8.15-33.54-22.65a33.11,33.11,0,0,1-3.26-14.44ZM214.92,70.68c-.13-1.09-.27-2.19-.43-3.28a32,32,0,0,0-4.91-13.25c-6.16-9.25-16.16-13.92-27.64-12.41A27.83,27.83,0,0,0,157.26,68.6c-.58,11.61,0,23.28-.22,34.92-.06,3.8,1.36,5.17,5.09,5.11q9.9-.15,19.82-.25A33.63,33.63,0,0,0,214.92,70.68Z"/><path class="cls-1" d="M281.22,318.34q-37,0-74,0c-23.58,0-39.68-15.9-39.74-39.23q-.12-37,0-74c.07-22.26,16-39,38.39-39.15q75.6-.5,151.21,0c22.72.15,38.54,16.95,38.58,39.78q.09,36.61,0,73.23c-.06,23.34-16.16,39.34-39.61,39.39C331.09,318.38,306.16,318.34,281.22,318.34Zm-57.4-98.14c0,36.9,26.57,62.47,62.73,60.3,32.45-1.94,56.58-32.65,52.75-67.12-.66-5.93-3.87-9.15-9.81-9.35-6.14-.21-9.37,3.14-9.93,9-.3,3.15-.06,6.36-.15,9.54-.62,21.58-17,38.29-37.72,38.43s-37.28-16.6-38-38.11c-.12-3.44.18-6.93-.2-10.34-.61-5.53-3.83-8.62-9.55-8.58-5.94.05-9.44,3.08-10.07,9A68.39,68.39,0,0,0,223.82,220.2Z"/></svg>