<svg id="Camada_1" data-name="Camada 1" xmlns="http://www.w3.org/2000/svg" viewBox="0 0 427.2 342"><defs><style>.cls-1{fill:#00add1;}</style></defs><path class="cls-1" d="M49.74,181.94V161.7q1.56-5.62,3.11-11.25a64.36,64.36,0,0,1,13.54-20.17l3-2.78c2.79-1.82,5.56-3.66,8.36-5.45,2.47-1.57,6.78-1.77,7.34-4.29s-1.7-5.7-2.72-8.59C81.21,102.49,80.24,95.8,81,89c.27-2.83,1.06-5.57,1.55-8.36.75-4.2,3.32-7.72,4-11.89A15.23,15.23,0,0,0,90.34,63a86.15,86.15,0,0,1,15.1-15.13,16.24,16.24,0,0,0,5-3.08c6.76-2.83,13.66-5.19,21-6.09a81.24,81.24,0,0,1,20.23,1.56c2.2.82,4.46,1.48,6.56,2.49,1.76.84,2.48.11,3.05-1.35,1.94-5,5-9.29,7.89-13.76l2.79-3a71.59,71.59,0,0,1,21-14.08c9-3.24,18.27-3.82,27.69-3.25l12.65,3.21A71.85,71.85,0,0,1,253.6,23.79l3.47,3.8c1.87,2.92,3.93,5.73,5.57,8.76,4,7.32,3.88,7.36,11.7,4.12a1.6,1.6,0,0,0,.3-.23,82.9,82.9,0,0,1,20.25-1.58c7.3,1,14.18,3.41,20.95,6.18a25.38,25.38,0,0,0,6,3.66c5.05,3.94,9.29,8.69,13.46,13.52l4.19,6.8c2.59,6.52,5.42,13,5.73,20.14.84,6.86,0,13.58-1.51,20.27-.77,2.23-1.39,4.53-2.34,6.68-.82,1.83-.3,2.68,1.43,3.38a73.9,73.9,0,0,1,14.2,8.17l2.94,2.79c3,3.78,6.41,7.22,9,11.39,3.73,6,5.56,12.68,7.67,19.29q.4,4.88.83,9.75l-.75,9-3.27,11.9a69,69,0,0,1-13.57,20.19,7.27,7.27,0,0,0-2.74,2.42c-3,2-5.87,4.15-9,5.89-7.48,4.17-7.52,4.08-4.27,12.08,1.22,6.93,2.33,13.86,1.47,20.93-.56,7.11-3.2,13.61-5.86,20.11a31.65,31.65,0,0,0-4.2,6.85c-4.36,4.59-8.5,9.4-13.53,13.29a25.38,25.38,0,0,0-6,3.66,76.3,76.3,0,0,1-20.89,6.2c-6.81.55-13.5-.34-20.17-1.55-1.84-.71-3.73-1.3-5.49-2.16-2.27-1.11-3.55-.68-4.47,1.8-1.83,4.92-5.17,9-8,13.3a5.62,5.62,0,0,0-2.41,2.73,63.79,63.79,0,0,1-20.88,13.88,62.42,62.42,0,0,1-30.74,2.92l-9.75-2.93c-8-3.05-14.65-8.18-20.91-13.89a6.55,6.55,0,0,0-2.41-2.7c-1.92-2.88-3.82-5.78-5.76-8.65-1.54-2.28-1.42-6.38-4.21-6.82-2.46-.39-5.3,1.61-8,2.56-6.67,1.17-13.36,2.05-20.15,1.54a77.06,77.06,0,0,1-21-6.26,13.53,13.53,0,0,0-4.44-2.68,80.91,80.91,0,0,1-15.9-15.63q-1.84-3.07-3.67-6.15c-2.48-6.28-5-12.55-5.53-19.38-.76-7.1.16-14.08,1.55-21C83.35,230.08,84,228,85,226c.82-1.79.31-2.7-1.44-3.32-5.3-1.88-9.68-5.34-14.3-8.39A5.11,5.11,0,0,0,66.84,212,61.51,61.51,0,0,1,52.9,191.61C51.63,188.46,51.71,184.86,49.74,181.94ZM270.83,130.2c-.32-6.09-9.78-15.92-16.42-17.07a8.47,8.47,0,0,0-7.27,2.22c-4.84,4.67-9.45,9.57-14.15,14.38a3.57,3.57,0,0,0-.63.4Q195.43,167,158.54,203.85c-2.18,2.17-3.6,4.8-3,8.08a6,6,0,0,0,1.18,4.56,54.78,54.78,0,0,0,10.68,10.72,6,6,0,0,0,4.55,1.26,8.17,8.17,0,0,0,7.76-2.42c4.65-4.46,9.07-9.15,13.58-13.75q10.52-9.77,20.29-20.27c2.68-2.59,5.42-5.14,8-7.78q16.59-16.68,33.14-33.42c4.58-4.49,9.23-8.92,13.71-13.5A8.18,8.18,0,0,0,270.83,130.2Zm3.68,81.71a19.66,19.66,0,0,0-20.11-20.18c-11.59-.24-20,8-20.55,20.23a19.86,19.86,0,0,0,20.56,20.26C266.1,232,274.62,223.38,274.51,211.91Zm-102.59-61.6c11.37.19,19.39-7.62,20.66-20.14-1.06-13-7.9-19.84-20.61-20.63a20.39,20.39,0,0,0-.05,40.77Z"/></svg>