<svg id="Camada_1" data-name="Camada 1" xmlns="http://www.w3.org/2000/svg" viewBox="0 0 427.2 342"><defs><style>.cls-1{fill:#00add1;}</style></defs><path class="cls-1" d="M8.06,188.38q0-3.75,0-7.5a55.14,55.14,0,0,0,5.46-11.15c3.57-6.71,7.27-13.35,10.29-20.34A31.87,31.87,0,0,0,28.41,140c2.56-3.26,3.95-7.13,5.75-10.79s3.86-7.28,5.61-11,3.76-7,7.35-9.18l1.43-.31a34.8,34.8,0,0,1,5.12-.1c12,1.55,24,2.87,36.08,4.26A169,169,0,0,0,110,115.57l21,2.77,20.2,2.48a185.12,185.12,0,0,0,20.21,2.43c6.92,1.6,14,2,21,2.8l20.27,3,20.22-3c7-.8,14.09-1.33,21-2.82a195.67,195.67,0,0,0,20.2-2.44,171.12,171.12,0,0,0,20.31-2.73c7-.25,14-1.48,20.93-2.52l20.28-2.52,21-2.74a39.34,39.34,0,0,0,9-1.34l9.72-.78,1.49.62,1.42.24c3.19,1.75,5.05,4.63,6.7,7.75,2.19,4.17,3.84,8.62,6.61,12.47a38.76,38.76,0,0,0,5.4,10.63,35.14,35.14,0,0,0,4.62,9.5A162.85,162.85,0,0,0,412,169.67c1.27,2.68,2.44,5.41,3.83,8a14.74,14.74,0,0,1,.58,12.87c-2.32,2.85-5.55,4.07-8.95,5s-7,1.59-10.29,3.17a157.45,157.45,0,0,0-20.34,5.84,186.87,186.87,0,0,0-20.12,5.61c-7.35,2-14.78,3.72-21.89,6.52a142.69,142.69,0,0,0-19.35,5.39l-30.54,8.5c-6.16,1.72-10.77-.06-14.06-5.45-2.92-4.79-5.87-9.56-8.8-14.33-2.5-4.42-4.82-9-8-12.95a28.55,28.55,0,0,0-4.36-7.34,238.79,238.79,0,0,0-12.72-21,16.75,16.75,0,0,0-3.12-5.19,136.11,136.11,0,0,0-9-15,45.19,45.19,0,0,0-2.47-4.55C219,140,217,134.26,212.75,130c-5,5.87-8.3,12.75-12.11,19.35-1.68,2.6-3.43,5.16-5,7.82q-9.94,16.65-19.81,33.35a29.11,29.11,0,0,0-4.39,7.37c-3.26,4-5.64,8.48-8,13-4.31,6-7.24,12.94-12.16,18.55l-3.68,1.67-6,0q-15.54-5.23-31.49-9c-6.64-2.36-13.44-4.16-20.27-5.86-6.59-2-13.09-4.36-20-5.42-6.83-3-14.13-4.43-21.26-6.42-6.71-1.94-13.33-4.24-20.22-5.56-3.42-1.75-7.22-2.31-10.86-3.31a16.67,16.67,0,0,1-8.4-5Z"/><path class="cls-1" d="M151.39,320.09a166.65,166.65,0,0,0-20.34-5.1,32.91,32.91,0,0,0-7.56-2.05,68.7,68.7,0,0,0-13.41-3.19,184.07,184.07,0,0,0-20.28-5.13c-6.88-2.19-13.94-3.67-21-5.24a42,42,0,0,1-14.19-6.07,64.84,64.84,0,0,1-6-11.43l-.18-9.55V231.1c0-1.73.09-3.46.14-5.18,1.45.33,2.9.64,4.34,1,5.3,1.39,10.42,3.42,15.87,4.24l2.25.7a118,118,0,0,0,18.7,5.34,178.08,178.08,0,0,0,20.29,5.84c6.88,2.42,13.94,4.22,21,6,6.57,2.33,13.2,4.12,20.23,2.22a28,28,0,0,0,18.62-12.05c6.18-9.17,11.54-18.88,17.26-28.37a74.07,74.07,0,0,0,6.15-10.46,45,45,0,0,0,6-9.76,228.78,228.78,0,0,0,12.12-20.09l1.4-1.36.76.44c4.13,7.5,8.45,14.88,13.28,22A52.24,52.24,0,0,0,233,201.82a63.6,63.6,0,0,0,5.93,9.87,257.49,257.49,0,0,0,14.22,23.22c4.3,8.86,11.37,14.12,21,16,7.07,2.58,13.71.44,20.33-1.89a214.22,214.22,0,0,0,21-6,174.08,174.08,0,0,0,20.29-5.84c6.93-1.59,13.88-3.11,20.41-6l.28,0,.26-.06c1.32-.26,2.65-.44,3.94-.78,5.44-1.47,10.87-3,16.3-4.47,0,1.74.09,3.49.13,5.24v41.23c-.34,3.74.27,7.55-.81,11.25a40.69,40.69,0,0,1-6,9.75c-3.86,3.5-8.84,4.46-13.57,6-7.08,1.45-14.08,3.17-21,5.25a191.55,191.55,0,0,0-20.27,5.14,49.66,49.66,0,0,0-12.69,3.14c-2.79.62-5.69.8-8.29,2.13a152.92,152.92,0,0,0-20.25,5.06c-6.85,1.13-13.5,3.11-20.2,4.87-7.36,1.76-14.78,3.27-22,5.69-5.81.62-11.28,2.93-17.19,3.22-10.33.51-19.76-3.49-29.56-5.57-4.61-1-9.17-2.2-13.76-3.31C164.88,323.17,158.23,321.24,151.39,320.09Z"/><path class="cls-1" d="M117,26.54c4.64-3.38,9.06-7.08,14-10A111,111,0,0,1,151.3,8.38c21.13-4.82,41.36-2.55,60.57,7.7A174.79,174.79,0,0,1,226.3,26.44,46.47,46.47,0,0,0,233,33.17l10.34,14.44a119.87,119.87,0,0,1,7.78,20c.71,3,.8,6.16,2.05,9q.12,3,.26,5.94l.22.48.35-.45c3.39-4.44,4.28-9.88,6-15a183.08,183.08,0,0,0,7.56-21q5.77-15.52,11.57-31.06c3.22-8.59,5.88-10.2,15.23-9.24,6.86,3.11,14,5.43,21.1,7.88,4.09,1.53,8.15,3.13,12.27,4.56A11.89,11.89,0,0,1,335,24.93a1.6,1.6,0,0,0,.69,1.52,19.84,19.84,0,0,1-.77,7.47,54.09,54.09,0,0,0-4.64,12.69,171.22,171.22,0,0,0-7.39,20.24,205.46,205.46,0,0,0-7.55,21c-.7.59-.61,1.46-.78,2.23-1.26,4.48-4.05,6.4-8.85,6.36-3.77,0-7.55,1-11.32,1.61a185,185,0,0,0-20.17,2.58c-6.82.19-13.51,1.53-20.25,2.4-4.42.48-8.87.78-13.25,1.49-6.56,1-13.24,1.27-19.71,2.91l-2.3.13a.79.79,0,0,0-.67,0l-5.28.65-5.14-.9c3.14-6.1,5.36-12.44,5-19.44a38.18,38.18,0,0,0-5.28-20.27,36.26,36.26,0,0,0-14-14.34c-6.57-4.65-14-6.46-21.9-6.34a36.09,36.09,0,0,0-20.26,5.62A32.8,32.8,0,0,0,136.3,67.68c-4.11,6.14-5.5,13-5.31,20.25a19.88,19.88,0,0,1,0,4c-.39,2,2,3.9.06,5.85-7-.78-13.93-2.13-21-2.39a9.93,9.93,0,0,0-3.61-.76c-5.53-.74-11.12-1-16.56-2.38l-.3-4.32c.2-2.71.37-5.42.6-8.13,1-11.78,4.9-22.65,10.3-33.05l9.67-13.35Z"/></svg>