<svg id="Camada_1" data-name="Camada 1" xmlns="http://www.w3.org/2000/svg" viewBox="0 0 427.2 342"><defs><style>.cls-1{fill:#00add1;}.cls-2{fill:#00add2;}</style></defs><path class="cls-1" d="M179.76,13h70.46A254.83,254.83,0,0,1,276.4,24.36a37.19,37.19,0,0,0,7.33,4.48l13,10.27L306.52,49l10.21,12.87a53.08,53.08,0,0,0,5.11,8.29,203.35,203.35,0,0,1,9.3,20.11c.55,1.9,1.07,3.8,1.65,5.69,3.53,11.57,4.89,23.48,5.42,35.51-.62,6.75.3,13.56-.87,20.29-.08,1-.17,2-.26,2.94a175.53,175.53,0,0,1-5.82,17.29,74.74,74.74,0,0,1-34.56,34.6c-6,2.66-12.42,4.18-18.76,5.86l-1.48.11-20.26.78H215c-2.74,0-5.49-.31-8.21-.09a21,21,0,0,1-22.62-20.27c1.09-12.11,6.87-18.54,18.92-20.5,3.9-.64,7.94-.38,11.92-.54,5.24.25,10.51-.12,15.69.9l4.38,1.78a24.68,24.68,0,0,1,9.64,11.49c1,2.19-.42,5.55,2.25,6.53,2.19.81,4.91.21,7.39.21.62,0,1.24-.11,1.85-.16,6.81.42,13.59.45,20.26-1.25a41.67,41.67,0,0,0,20.21-9,30.53,30.53,0,0,0,10.45-10.44,41,41,0,0,0,9.16-20.19c1.93-6.68,1.35-13.5,1.11-20.3-.18-3.8,0-7.67-.62-11.41-.52-3.2-.12-6.66-2-9.59a63.41,63.41,0,0,0-6.16-20.21,67.08,67.08,0,0,0-3.66-8c-2.49-4-4-8.76-8.2-11.61a1.57,1.57,0,0,0-.65-1.56,80,80,0,0,0-19.57-19.5l-.77-.54A68.17,68.17,0,0,0,256.28,37.5a78.85,78.85,0,0,0-21-6.7,75.09,75.09,0,0,0-20.31-2,73.73,73.73,0,0,0-20.3,2,77.7,77.7,0,0,0-21,6.72A67.63,67.63,0,0,0,154.22,49l-.78.57A81.75,81.75,0,0,0,133.2,69.89a71.35,71.35,0,0,0-11.9,20.32,74.49,74.49,0,0,0-6.6,20.23,104.55,104.55,0,0,0-2.11,21c-.06,2.74-.3,5.49-.14,8.21A11.81,11.81,0,0,1,107,150.84a14.37,14.37,0,0,1-9.62,0,11.79,11.79,0,0,1-5.45-11.16c.16-2.72-.08-5.48-.14-8.22.59-14.05,2.61-27.85,7.06-41.24A167.7,167.7,0,0,1,108.33,70l5-8.12q5.07-6.46,10.13-12.92l9.85-9.84,12.07-9.54,8.24-5.2A254.11,254.11,0,0,1,179.76,13Z"/><path class="cls-1" d="M276.46,233.77l10.46.43,9.78,2c7,1.66,13.45,4.89,20,7.87a144,144,0,0,1,14.49,10.3l6.73,6.81q4.85,6.72,9.7,13.45a107.47,107.47,0,0,1,8.46,20.95l2.05,9.79c.24,3.48-.16,7,.59,10.45-.26,1.71-.51,3.42-.77,5.13-2.11,5.82-5.41,10.56-11.28,13.24a22.21,22.21,0,0,1-9.41,2q-122.45,0-244.88,0a27.65,27.65,0,0,1-7-.85c-5.8-2.7-10.34-6.68-12.79-12.74-.42-2.23-.83-4.47-1.24-6.7.61-14.59,3.8-28.48,11.1-41.26l9.7-13.46,6.73-6.8,13.49-9.72c7.09-3.61,14.29-6.83,22.13-8.63,6.32-1.45,12.76-1.6,19.12-2.52l16.44.65a6.21,6.21,0,0,0,3.73,1.53,62.06,62.06,0,0,0,21,6,76.17,76.17,0,0,0,20.24,2,73.93,73.93,0,0,0,20.27-2,61.15,61.15,0,0,0,19.29-5.22,34.67,34.67,0,0,1,15.95-2.62C272.49,234,274.48,233.83,276.46,233.77Z"/><path class="cls-1" d="M286.81,91.21a152.72,152.72,0,0,1,7.68,19.24c-.19,1.92.73,3.59,1.2,5.36l1.38,15.62c-.52,6.68.33,13.45-1.88,20-4.67,13.89-18.68,21.88-33.27,20.55-2-.18-2.41-2-3.35-3.2-6-7.84-13.42-13.6-23.35-15.58-6.61-2.27-13.44-1.42-20.22-1.4s-13.63-1-20.25,1.35c-8.59,1.69-15.42,6.22-20.94,12.89a13,13,0,0,0-4,5.77,34.66,34.66,0,0,0-5.8,21.11c-1,2.93-1.77-.41-2.68-.09l-7.69-7.63a12.14,12.14,0,0,0-3-3.6l-5.35-7.4-1.44-2.28c-1-2.23-2-4.47-3.15-6.67-3.78-7.61-5.45-15.87-7.34-24.06l-.36-9.74a89.72,89.72,0,0,1,10.85-41.25l9.75-13.54,6.69-6.73c4.52-3.26,8.68-7,13.55-9.82C186.53,52.83,200.45,49.73,215,49l11.24.77,8.91,1.78a118.79,118.79,0,0,1,21.06,8.57L269,69.22l7.44,7.58C280.5,81.16,283.3,86.44,286.81,91.21Z"/><path class="cls-2" d="M179.76,13s37.35-9.87,70.46,0"/></svg>