<svg id="Camada_1" data-name="Camada 1" xmlns="http://www.w3.org/2000/svg" viewBox="0 0 327.71 327.85"><defs><style>.cls-1{fill:#00add1;}</style></defs><path class="cls-1" d="M21.52,197.29V177.05q1.55-5.62,3.1-11.25a64.68,64.68,0,0,1,13.55-20.17l3-2.78c2.78-1.81,5.55-3.66,8.36-5.44,2.47-1.57,6.78-1.78,7.33-4.3s-1.69-5.7-2.71-8.58c-1.13-6.69-2.1-13.38-1.36-20.19.27-2.83,1.05-5.57,1.55-8.36.74-4.19,3.32-7.71,4-11.88a15.21,15.21,0,0,0,3.78-5.76A86.21,86.21,0,0,1,77.21,63.2a16.17,16.17,0,0,0,5-3.07c6.77-2.83,13.67-5.2,21-6.1a81.29,81.29,0,0,1,20.23,1.57c2.19.81,4.46,1.48,6.56,2.48,1.76.85,2.48.11,3.05-1.34,1.94-5,5-9.3,7.89-13.77l2.79-3a72,72,0,0,1,21-14.08c9-3.23,18.26-3.81,27.69-3.25l12.65,3.21a72,72,0,0,1,20.29,13.31q1.73,1.9,3.47,3.8c1.87,2.92,3.92,5.73,5.57,8.77,4,7.31,3.88,7.35,11.7,4.11a2.1,2.1,0,0,0,.3-.22A82.38,82.38,0,0,1,266.67,54c7.29,1,14.18,3.41,20.95,6.19a25.14,25.14,0,0,0,6,3.65c5.05,3.95,9.29,8.7,13.46,13.52q2.08,3.41,4.19,6.81c2.59,6.52,5.42,13,5.73,20.14.84,6.85,0,13.58-1.52,20.26-.76,2.23-1.38,4.53-2.34,6.68-.81,1.84-.29,2.68,1.44,3.39a74.46,74.46,0,0,1,14.2,8.16l2.94,2.8c3,3.78,6.41,7.22,9,11.38,3.73,6,5.56,12.68,7.66,19.29q.42,4.88.83,9.75l-.75,9.05q-1.64,6-3.26,11.91a69.11,69.11,0,0,1-13.58,20.18,7.45,7.45,0,0,0-2.74,2.43c-3,2-5.86,4.15-9,5.88-7.48,4.17-7.53,4.09-4.27,12.09,1.21,6.92,2.33,13.85,1.47,20.92-.56,7.11-3.21,13.61-5.86,20.11a32,32,0,0,0-4.2,6.86c-4.36,4.58-8.5,9.39-13.53,13.28a25.64,25.64,0,0,0-6,3.66,76.13,76.13,0,0,1-20.88,6.2c-6.81.56-13.5-.34-20.17-1.55-1.84-.71-3.73-1.3-5.5-2.16-2.27-1.11-3.54-.67-4.46,1.8-1.83,4.92-5.17,9-8,13.31a5.59,5.59,0,0,0-2.4,2.72,63.74,63.74,0,0,1-20.88,13.88,62.19,62.19,0,0,1-30.74,2.92l-9.75-2.93c-8-3-14.66-8.18-20.91-13.89a6.59,6.59,0,0,0-2.41-2.69c-1.92-2.89-3.82-5.78-5.76-8.66-1.54-2.28-1.42-6.38-4.22-6.82-2.45-.39-5.29,1.61-8,2.56-6.67,1.17-13.36,2.05-20.16,1.54a76.4,76.4,0,0,1-20.94-6.26,13.81,13.81,0,0,0-4.44-2.68A80.68,80.68,0,0,1,62,294.06l-3.67-6.14c-2.47-6.28-5-12.55-5.52-19.39-.76-7.1.16-14.08,1.55-21,.79-2.08,1.47-4.2,2.4-6.21.82-1.79.3-2.7-1.45-3.32-5.29-1.88-9.68-5.34-14.3-8.39a5,5,0,0,0-2.38-2.28A61.53,61.53,0,0,1,24.68,207C23.41,203.81,23.49,200.22,21.52,197.29Zm221.09-51.74c-.33-6.08-9.78-15.91-16.42-17.06a8.39,8.39,0,0,0-7.27,2.22c-4.84,4.66-9.45,9.57-14.16,14.38a3.73,3.73,0,0,0-.63.4q-36.91,36.84-73.82,73.71c-2.17,2.18-3.6,4.8-3,8.08a5.93,5.93,0,0,0,1.17,4.56,54.29,54.29,0,0,0,10.69,10.72,6,6,0,0,0,4.55,1.26,8.14,8.14,0,0,0,7.76-2.42c4.65-4.46,9.07-9.15,13.58-13.74q10.52-9.76,20.28-20.28c2.69-2.59,5.42-5.13,8.05-7.78q16.6-16.68,33.14-33.42c4.58-4.49,9.23-8.91,13.71-13.5A8.16,8.16,0,0,0,242.61,145.55Zm3.68,81.71a19.65,19.65,0,0,0-20.11-20.17c-11.6-.25-20,8-20.55,20.23a19.87,19.87,0,0,0,20.55,20.26C237.88,247.34,246.4,238.74,246.29,227.26ZM143.7,165.67c11.37.19,19.38-7.62,20.66-20.15-1.06-13-7.9-19.84-20.61-20.62a20.39,20.39,0,0,0-.05,40.77Z" transform="translate(-21.52 -22.43)"/></svg>